{"title":"True.Story.2015.BRRip.XViD.AC3-Shelby","uid":12151736,"size":1467913711,"categoryP":"video","categoryS":"movies","magnet":"?xt=urn:btih:09ca70d88d386076ee5df32686c4461ad9c3f07a&amp;dn=True.Story.2015.BRRip.XViD.AC3-Shelby&amp;tr=udp%3A%2F%2Ftracker.openbittorrent.com%3A80&amp;tr=udp%3A%2F%2Fopen.demonii.com%3A1337&amp;tr=udp%3A%2F%2Ftracker.coppersurfer.tk%3A6969&amp;tr=udp%3A%2F%2Fexodus.desync.com%3A6969","seeders":2,"leechers":0,"uploader":null,"files":2,"time":1437610377,"description":"True Story 2015 BRRip XViD AC3-Shelby\n\nGeneral\nComplete name                            : True.Story.2015.BRRip.XViD.AC3-Shelby.avi\nFormat                                   : AVI\nFormat/Info                              : Audio Video Interleave\nFile size                                : 1.37 GiB\nDuration                                 : 1h 39mn\nOverall bit rate                         : 1 968 Kbps\nWriting application                      : Lavf55.19.104\nWriting library                          : \n\nVideo\nID                                       : 0\nFormat                                   : MPEG-4 Visual\nFormat profile                           : Simple@L3\nFormat settings, BVOP                    : No\nFormat settings, QPel                    : No\nFormat settings, GMC                     : No warppoints\nFormat settings, Matrix                  : Default (H.263)\nCodec ID                                 : XVID\nCodec ID/Hint                            : XviD\nDuration                                 : 1h 39mn\nBit rate                                 : 1 510 Kbps\nWidth                                    : 720 pixels\nHeight                                   : 384 pixels\nDisplay aspect ratio                     : 1.85:1\nFrame rate                               : 23.976 fps\nColor space                              : YUV\nChroma subsampling                       : 4:2:0\nBit depth                                : 8 bits\nScan type                                : Progressive\nCompression mode                         : Lossy\nBits/(Pixel*Frame)                       : 0.228\nStream size                              : 1.05 GiB (77%)\nWriting library                          : XviD 64\n\nAudio\nID                                       : 1\nFormat                                   : AC-3\nFormat/Info                              : Audio Coding 3\nMode extension                           : CM (complete main)\nFormat settings, Endianness              : Big\nCodec ID                                 : 2000\nDuration                                 : 1h 39mn\nBit rate mode                            : Constant\nBit rate                                 : 448 Kbps\nChannel count                            : 2 channels\nChannel positions                        : Front: L R\nSampling rate                            : 48.0 KHz\nBit depth                                : 16 bits\nCompression mode                         : Lossy\nStream size                              : 319 MiB (23%)\nAlignment                                : Aligned on interleaves\nInterleave, duration                     : 32 ms (0.77 video frame)\nInterleave, preload duration             : 512 ms\n\n\n\n\nDrama:Mystery:Thriller\n\nWhen disgraced New York Times reporter Michael Finkel meets accused killer Christian Longo - who has taken on Finkel's identity - his investigation morphs into a game of cat-and-mouse.\n\n\nDirector: Rupert Goold \n\nWriters: Michael Finkel (memoir), Rupert Goold (screenplay), 1 more credit Â» \n\nStars: James Franco, Jonah Hill, Felicity Jones\n &lt;a href=&quot;\nhttp://www.imdb.com/title/tt2273657/&quot; rel=&quot;nofollow&quot; target=&quot;_NEW&quot;&gt;\nhttp://www.imdb.com/title/tt2273657/&lt;/a&gt;","torrent":{"xt":"urn:btih:09ca70d88d386076ee5df32686c4461ad9c3f07a","amp;dn":"True.Story.2015.BRRip.XViD.AC3-Shelby","amp;tr":["udp%3A%2F%2Ftracker.openbittorrent.com%3A80","udp%3A%2F%2Fopen.demonii.com%3A1337","udp%3A%2F%2Ftracker.coppersurfer.tk%3A6969","udp%3A%2F%2Fexodus.desync.com%3A6969"],"infoHash":"09ca70d88d386076ee5df32686c4461ad9c3f07a","infoHashBuffer":{"type":"Buffer","data":[9,202,112,216,141,56,96,118,238,93,243,38,134,196,70,26,217,195,240,122]},"announce":[],"urlList":[]}}